<svg width="94" height="27" viewBox="0 0 94 27" fill="none" xmlns="http://www.w3.org/2000/svg">
<path d="M70.6528 6.03582H73.3944L72.8705 7.8363H70.6528V17.9111H68.6263V7.8363H67.1924V6.03582H68.6263C68.6263 5.3134 68.6263 4.60566 68.6263 3.88254C68.6263 2.44607 69.1476 1.41554 69.9321 0.796518C70.9879 -0.0474741 72.7046 0.00141913 73.792 0.591796L73.371 2.38319C72.1599 1.87037 70.6528 1.86268 70.6528 4.0558C70.6528 4.71535 70.6528 5.37628 70.6528 6.03582ZM89.108 5.78361C92.0458 5.78361 93.5479 8.27017 93.5605 11.644C93.5618 12.0674 93.5573 12.0129 93.5573 12.4342C91.2765 12.4342 88.9596 12.4342 86.6794 12.4342C86.7918 13.5822 87.0095 14.5191 87.6671 15.2226C88.7804 16.4167 90.4787 16.6822 92.7224 15.4511L93.3238 16.9966C91.652 18.2304 88.5027 18.6126 86.6592 17.0343C85.4412 16.0687 84.6573 14.1872 84.6573 11.9179C84.6573 8.09132 86.5816 5.78361 89.108 5.78361ZM89.1294 7.53657C90.6719 7.53657 91.4986 9.18683 91.4986 10.7693L86.6939 10.7826C86.6939 8.95069 87.7687 7.53657 89.1294 7.53657ZM78.9362 6.06378H80.639L80.846 7.52889C82.2244 5.77104 83.8741 5.38676 85.125 6.12176L84.4383 8.0948C83.1868 7.33465 82.0874 8.03123 80.9394 9.32237V17.9111H78.9362V6.06378ZM75.1312 6.06378H77.1394V17.9111H75.1312V6.06378ZM76.136 0.786728C76.8592 0.786728 77.4455 1.43441 77.4455 2.23299C77.4455 3.03087 76.8592 3.67853 76.136 3.67853C75.4127 3.67853 74.8264 3.03087 74.8264 2.23299C74.8264 1.43441 75.4127 0.786728 76.136 0.786728Z" fill="white"/>
<path d="M91.4171 10.8709H86.8184C86.8184 10.6029 87.0604 7.92346 89.2388 7.92346C90.9814 7.92346 91.4171 9.8884 91.4171 10.8709Z" fill="#24272C"/>
<path fill-rule="evenodd" clip-rule="evenodd" d="M39.3735 22.2509C35.7023 25.2503 30.3794 26.8453 25.7956 26.8453C19.3721 26.8453 13.5873 24.2169 9.20982 19.8405C8.86649 19.4974 9.17258 19.0279 9.58597 19.2941C14.3086 22.3361 20.1496 24.1687 26.1818 24.1687C30.2507 24.1687 34.7234 23.2339 38.8396 21.3007C39.4599 21.0093 39.9806 21.7541 39.3735 22.2509Z" fill="white"/>
<path fill-rule="evenodd" clip-rule="evenodd" d="M40.9014 20.3183C40.4312 19.6525 37.7975 20.0025 36.6135 20.1597C36.2551 20.2072 36.1995 19.8607 36.5227 19.6092C38.6243 17.9757 42.0677 18.4473 42.4678 18.9943C42.8711 19.5456 42.3618 23.3687 40.3927 25.1923C40.0898 25.4724 39.8013 25.3229 39.9358 24.9526C40.3788 23.7271 41.3716 20.9842 40.9014 20.3183Z" fill="white"/>
<path fill-rule="evenodd" clip-rule="evenodd" d="M36.6977 8.06446V6.47638C36.699 6.23464 36.8631 6.07395 37.0613 6.07465L43.4898 6.07395C43.6956 6.07395 43.8609 6.23953 43.8609 6.47428V7.83599C43.8584 8.06446 43.6849 8.36279 43.3769 8.83579L40.0465 14.0989C41.2822 14.0667 42.5905 14.2721 43.7132 14.9708C43.9663 15.1287 44.0345 15.3614 44.0547 15.5905V17.2848C44.0547 17.5182 43.8237 17.7885 43.5807 17.6474C41.6022 16.5002 38.9767 16.3751 36.7886 17.6621C36.5652 17.7934 36.3311 17.5272 36.3311 17.2939V15.6835C36.3311 15.4249 36.3355 14.9848 36.5703 14.5921L40.4283 8.46409H37.0695C36.8643 8.46409 36.699 8.302 36.6977 8.06446Z" fill="white"/>
<path fill-rule="evenodd" clip-rule="evenodd" d="M13.2456 17.9821H11.2897C11.1035 17.9688 10.9546 17.8144 10.9395 17.616L10.9413 6.50431C10.9413 6.28143 11.1099 6.10467 11.3188 6.10467L13.1402 6.10327C13.3308 6.11445 13.4835 6.27375 13.4955 6.47707V7.92751H13.5321C14.0067 6.52458 14.9016 5.86993 16.1058 5.86993C17.3289 5.86993 18.0957 6.52458 18.6435 7.92751C19.1187 6.52458 20.1954 5.86993 21.346 5.86993C22.1671 5.86993 23.062 6.24371 23.6091 7.08561C24.2302 8.02112 24.1027 9.37725 24.1027 10.5699L24.1008 17.5824C24.1008 17.8039 23.9323 17.9821 23.7234 17.9821H21.7701C21.5738 17.9681 21.4192 17.7962 21.4192 17.5831V11.6919C21.4192 11.2252 21.4552 10.0557 21.3636 9.61131C21.2179 8.86303 20.7799 8.65202 20.2144 8.65202C19.7391 8.65202 19.2462 9.00275 19.0449 9.56448C18.8448 10.1255 18.8625 11.0603 18.8625 11.6919V17.5824C18.8625 17.8039 18.694 17.9821 18.4857 17.9821H16.5324C16.3355 17.9681 16.1809 17.7962 16.1809 17.5831L16.179 11.6919C16.179 10.4532 16.3614 8.62967 14.9748 8.62967C13.5681 8.62967 13.6236 10.4064 13.6236 11.6919L13.6223 17.5824C13.6223 17.8039 13.4538 17.9821 13.2456 17.9821Z" fill="white"/>
<path fill-rule="evenodd" clip-rule="evenodd" d="M49.4149 8.13812C47.9728 8.13812 47.8813 10.3124 47.8813 11.6685C47.8813 13.0246 47.8636 15.9241 49.3972 15.9241C50.9125 15.9241 50.9851 13.5857 50.9851 12.1604C50.9851 11.2248 50.9485 10.1021 50.6929 9.21336C50.4733 8.44133 50.0353 8.13812 49.4149 8.13812ZM49.3972 5.86954C52.2997 5.86954 53.8693 8.62928 53.8693 12.1366C53.8693 15.5266 52.1356 18.2164 49.3972 18.2164C46.549 18.2164 44.9971 15.4567 44.9971 12.0192C44.9971 8.55872 46.5667 5.86954 49.3972 5.86954Z" fill="white"/>
<path fill-rule="evenodd" clip-rule="evenodd" d="M57.6311 17.9821H55.6822C55.4865 17.9681 55.3319 17.7962 55.3319 17.5831L55.3281 6.46729C55.3445 6.26328 55.5074 6.10467 55.7043 6.10467L57.5181 6.10327C57.6891 6.11375 57.8299 6.24232 57.8658 6.41489V8.11474H57.9025C58.4503 6.59444 59.2171 5.86993 60.5677 5.86993C61.4443 5.86993 62.3026 6.22066 62.8498 7.17923C63.361 8.06794 63.361 9.56449 63.361 10.6397V17.6327C63.3395 17.829 63.1799 17.9821 62.9861 17.9821H61.0259C60.8447 17.9695 60.6983 17.8221 60.6775 17.6327V11.599C60.6775 10.3833 60.8056 8.60591 59.4544 8.60591C58.9792 8.60591 58.5418 8.95664 58.3221 9.49392C58.0482 10.1723 58.0116 10.85 58.0116 11.599V17.5824C58.0085 17.8039 57.8393 17.9821 57.6311 17.9821Z" fill="white"/>
<path fill-rule="evenodd" clip-rule="evenodd" d="M33.5429 17.9528C33.4136 18.082 33.2274 18.0904 33.081 18.0031C32.4322 17.4057 32.3154 17.1297 31.9601 16.561C30.8866 17.7711 30.1261 18.1344 28.7357 18.1344C27.0891 18.1344 25.8086 17.0096 25.8086 14.7598C25.8086 13.0027 26.6688 11.8072 27.8938 11.2211C28.9554 10.7061 30.4372 10.6118 31.572 10.4714V10.1898C31.572 9.67421 31.6086 9.06567 31.334 8.61992C31.0955 8.22168 30.6385 8.05749 30.2359 8.05749C29.4899 8.05749 28.8266 8.48019 28.6638 9.35702C28.6297 9.55265 28.5016 9.74618 28.3242 9.75596L26.4284 9.52819C26.2687 9.48837 26.0907 9.34654 26.1368 9.07545C26.5729 6.5302 28.6493 5.76097 30.5098 5.76097C31.4621 5.76097 32.7061 6.04183 33.4558 6.83901C34.4076 7.82344 34.3161 9.13554 34.3161 10.5657V13.9382C34.3161 14.9534 34.6966 15.3977 35.0545 15.9448C35.1788 16.1418 35.2066 16.3759 35.0475 16.5198C34.6487 16.8908 33.9387 17.5734 33.548 17.9577L33.5429 17.9528ZM31.572 12.6743C31.572 13.5183 31.5896 14.2205 31.2053 14.9715C30.8948 15.5801 30.4006 15.9553 29.8515 15.9553C29.1018 15.9553 28.6625 15.3223 28.6625 14.3846C28.6625 12.5409 30.157 12.2055 31.572 12.2055V12.6743Z" fill="white"/>
<path fill-rule="evenodd" clip-rule="evenodd" d="M7.90428 17.9528C7.7749 18.082 7.58808 18.0904 7.44229 18.0031C6.79224 17.4057 6.67612 17.1297 6.32143 16.561C5.24726 17.7711 4.48739 18.1344 3.09704 18.1344C1.45045 18.1344 0.169922 17.0096 0.169922 14.7598C0.169922 13.0027 1.02951 11.8072 2.25514 11.2211C3.31605 10.7061 4.79854 10.6118 5.93203 10.4714V10.1898C5.93203 9.67421 5.96927 9.06567 5.69473 8.61992C5.4568 8.22168 4.99923 8.05749 4.59721 8.05749C3.85123 8.05749 3.18793 8.48019 3.0251 9.35702C2.99165 9.55265 2.86291 9.74618 2.68557 9.75596L0.789684 9.52819C0.630011 9.48837 0.451397 9.34654 0.4981 9.07545C0.933572 6.5302 3.00995 5.76097 4.87175 5.76097C5.82285 5.76097 7.06741 6.04183 7.81717 6.83901C8.76827 7.82344 8.6774 9.13554 8.6774 10.5657V13.9382C8.6774 14.9534 9.05732 15.3977 9.41454 15.9448C9.5395 16.1418 9.56789 16.3759 9.40885 16.5198C9.00935 16.8908 8.29873 17.5734 7.9087 17.9577L7.90428 17.9528ZM5.93203 12.6743C5.93203 13.5183 5.95096 14.2205 5.56661 14.9715C5.2561 15.5801 4.76131 15.9553 4.21287 15.9553C3.4631 15.9553 3.0232 15.3223 3.0232 14.3846C3.0232 12.5409 4.5177 12.2055 5.93203 12.2055V12.6743Z" fill="white"/>
</svg>
