<svg width="52" height="27" viewBox="0 0 52 27" fill="none" xmlns="http://www.w3.org/2000/svg">
<path fill-rule="evenodd" clip-rule="evenodd" d="M14.6063 0.57373C14.6063 0.57373 12.4077 0.5846 10.8263 2.82342C9.42004 4.8143 9.77795 6.51701 9.77795 6.51701C9.77795 6.51701 11.6848 6.87143 13.3623 4.70628C14.9332 2.67866 14.6063 0.57373 14.6063 0.57373ZM12.3557 25.8893C12.9815 26.1404 13.5992 26.3883 14.2932 26.3883C17.3549 26.3883 19.6214 19.5353 19.6214 19.5353C19.6214 19.5353 16.3788 18.1868 16.3788 14.274C16.3788 10.8054 18.9819 9.37598 18.9819 9.37598C18.9819 9.37598 17.6511 6.79033 14.268 6.79033C13.0721 6.79033 12.0449 7.23504 11.2405 7.58327C10.7229 7.80733 10.2976 7.99144 9.97908 7.99144C9.58208 7.99144 9.10311 7.79326 8.54649 7.56295C7.77447 7.24352 6.85308 6.86228 5.79381 6.86228C2.98975 6.86228 0 9.55922 0 14.7003C0 19.9256 3.53209 26.4262 6.32779 26.4262C6.76263 26.4262 7.30128 26.2166 7.89849 25.9841C8.64139 25.6949 9.47491 25.3704 10.3119 25.3704C11.0625 25.3704 11.7134 25.6316 12.3557 25.8893ZM29.5265 26.3917C30.4473 26.3917 31.3257 26.2537 32.161 25.9776C32.9964 25.7015 33.7032 25.4255 34.2815 25.1494L33.4141 21.4913L33.4023 21.4966C33.1226 21.6224 31.9552 22.147 31.0687 22.147C30.1209 22.147 29.4622 21.638 29.4622 20.387V11.5525H32.9964V7.998H29.4622V2.13133H25.1569V7.998H22.94V11.5525H25.1569V21.94C25.1569 24.7007 26.667 26.3917 29.5265 26.3917ZM41.0604 26.0811H45.7191L51.92 7.998H47.8718L43.5665 22.3196L39.2933 7.998H34.8595L41.0604 26.0811Z" fill="white"/>
</svg>
