<svg width="15" height="15" viewBox="0 0 15 15" fill="none" xmlns="http://www.w3.org/2000/svg">
<path d="M7.5 0C3.35685 0 0 3.35685 0 7.5C0 11.6431 3.35685 15 7.5 15C11.6431 15 15 11.6431 15 7.5C15 3.35685 11.6431 0 7.5 0ZM11.1774 9.46875C11.3196 9.61089 11.3196 9.84073 11.1774 9.98286L9.97984 11.1774C9.8377 11.3196 9.60786 11.3196 9.46573 11.1774L7.5 9.19355L5.53125 11.1774C5.38911 11.3196 5.15927 11.3196 5.01714 11.1774L3.82258 9.97984C3.68044 9.8377 3.68044 9.60786 3.82258 9.46573L5.80645 7.5L3.82258 5.53125C3.68044 5.38911 3.68044 5.15927 3.82258 5.01714L5.02016 3.81956C5.1623 3.67742 5.39214 3.67742 5.53427 3.81956L7.5 5.80645L9.46875 3.82258C9.61089 3.68044 9.84073 3.68044 9.98286 3.82258L11.1804 5.02016C11.3226 5.1623 11.3226 5.39214 11.1804 5.53427L9.19355 7.5L11.1774 9.46875Z" fill="#FF4848"/>
</svg>
