<svg width="47" height="23" viewBox="0 0 47 23" fill="none" xmlns="http://www.w3.org/2000/svg">
<path d="M1.13149 22.5332H4.89493V6.35731H1.13149V22.5332ZM3.00566 4.236C4.18458 4.236 5.10653 3.32036 5.10653 2.17587C5.10653 1.01606 4.18458 0.100464 3.00566 0.100464C1.84188 0.100464 0.919922 1.0161 0.919922 2.17587C0.919922 3.3204 1.84188 4.236 3.00566 4.236ZM17.4251 0.146133C11.0622 0.146133 7.07183 4.52587 7.07183 11.5305C7.07183 18.5351 11.0618 22.8996 17.4251 22.8996C23.7729 22.8996 27.7633 18.5351 27.7633 11.5305C27.7633 4.52587 23.7733 0.146133 17.4251 0.146133ZM17.4251 3.50342C21.3094 3.50342 23.788 6.61655 23.788 11.5304C23.788 16.4289 21.3093 19.5422 17.4251 19.5422C13.5257 19.5422 11.0622 16.429 11.0622 11.5304C11.0622 6.61663 13.5258 3.50342 17.4251 3.50342ZM29.3508 16.3375C29.5171 20.3969 32.8119 22.8995 37.8298 22.8995C43.1047 22.8995 46.4299 20.2747 46.4299 16.0934C46.4299 12.8124 44.5557 10.9659 40.1273 9.94353L37.6184 9.36362C34.9432 8.7227 33.8399 7.86812 33.8399 6.40313C33.8399 4.57189 35.5024 3.35106 37.966 3.35106C40.4598 3.35106 42.1676 4.58717 42.3491 6.6473H46.0671C45.9765 2.77116 42.8025 0.14625 37.9963 0.14625C33.2504 0.14625 29.8799 2.78628 29.8799 6.693C29.8799 9.83664 31.7843 11.79 35.8044 12.721L38.6308 13.3924C41.3815 14.0486 42.5 14.9642 42.5 16.5513C42.5 18.3825 40.6712 19.6949 38.0415 19.6949C35.3814 19.6949 33.3713 18.3673 33.1295 16.3377H29.351L29.3508 16.3375Z" fill="white"/>
</svg>
