<svg width="67" height="25" viewBox="0 0 67 25" fill="none" xmlns="http://www.w3.org/2000/svg">
<path d="M10.784 8.51684C10.784 6.38891 9.2814 4.67523 7.44411 4.67523H5.78787V12.3245H7.44411C9.2814 12.3245 10.784 10.6096 10.784 8.51684ZM18.3181 23.766H12.2383L7.41129 16.1338H5.78787V23.7496H0.429688V0.869883H8.10562C12.5307 0.869883 16.1426 4.29838 16.1426 8.51684C16.1426 11.0896 14.758 13.3876 12.6506 14.7935L18.3181 23.766Z" fill="white"/>
<path d="M24.3611 9.89342C22.9461 9.89342 21.7425 12.0848 21.7425 14.7976C21.7425 17.5103 22.9461 19.7046 24.3611 19.7046C25.809 19.7046 27.0106 17.5103 27.0106 14.7976C27.0106 12.0848 25.809 9.89342 24.3611 9.89342ZM32.6086 14.7976C32.6086 19.98 28.9096 24.1299 24.3611 24.1299C19.8142 24.1299 16.1426 19.98 16.1426 14.7976C16.1426 9.61914 19.8142 5.46698 24.3611 5.46698C28.9096 5.46698 32.6086 9.61914 32.6086 14.7976Z" fill="white"/>
<path d="M45.18 5.84666L39.0076 12.8782V5.82343H33.6504V23.753H39.0076V16.4801L45.4515 23.753H52.1944L44.0057 14.4219L50.7883 6.6967V17.3369C50.7883 20.8697 52.653 24.1299 57.3486 24.1299C59.5779 24.1299 61.6235 22.6893 62.6178 21.386L65.0266 23.753H66.17V5.84666H60.8128V15.1756V17.4401C60.2095 18.6398 59.369 19.394 58.0698 19.394C56.7518 19.394 56.147 18.5038 56.147 15.6561V14.9047V5.84666H45.18Z" fill="white"/>
</svg>
